PathFileType	3	(X/Y/Z)	C:\Users\koon_\Desktop\
DataRate	CameraRate	NumFrames	NumMarkers	Units	OrigDataRate	OrigDataStartFrame	OrigNumFrames
100.0	100.0	9	27	mm	100.0	2975	3966	
Frame#	Time	GM:LFHD			GM:RFHD			GM:LBHD			GM:RBHD			GM:C7			GM:T10			GM:CLAV			GM:STRN			GM:RBAK			GM:LSHO			GM:LUPA			GM:LELB			GM:LFRA			GM:LWRA			GM:LWRB			GM:LFIN			GM:RSHO			GM:RUPA			GM:RELB			GM:RFRA			GM:RWRA			GM:RWRB			GM:RFIN			GM:LASI			GM:RASI			GM:LPSI			GM:RPSI			
		X1	Y1	Z1	X2	Y2	Z2	X3	Y3	Z3	X4	Y4	Z4	X5	Y5	Z5	X6	Y6	Z6	X7	Y7	Z7	X8	Y8	Z8	X9	Y9	Z9	X10	Y10	Z10	X11	Y11	Z11	X12	Y12	Z12	X13	Y13	Z13	X14	Y14	Z14	X15	Y15	Z15	X16	Y16	Z16	X17	Y17	Z17	X18	Y18	Z18	X19	Y19	Z19	X20	Y20	Z20	X21	Y21	Z21	X22	Y22	Z22	X23	Y23	Z23	X24	Y24	Z24	X25	Y25	Z25	X26	Y26	Z26	X27	Y27	Z27	
2975	29.74	174.92659	1578.7532	-52.629467	21.220236	1586.8805	-60.74144	181.40727	1563.3658	-184.88562	18.312408	1575.0267	-175.80707	94.558975	1404.9623	-233.09006	107.07335	1217.5522	-289.12601	90.205376	1337.1986	-78.740623	77.366333	1187.2446	-40.34301	4.7930155	1301.387	-292.80331	258.89975	1372.4645	-147.50772	317.81723	1289.2161	-93.925667	340.04758	1111.9053	5.8132086	271.77258	1238.9321	3.1359808	240.8524	1296.9181	23.530195	222.76511	1274.1052	82.89975	199.86507	1374.9558	57.305031	-88.895554	1376.3433	-149.61981	-190.85594	1205.6704	-74.76696	-219.83531	1116.4403	-32.475597	-191.61671	1211.2098	-50.108128	-138.04959	1307.3864	-15.889054	-129.42918	1291.9479	43.638165	-125.75468	1388.9165	15.570979	181.30092	884.06952	-74.953217	-98.208557	890.92749	-146.64577	162.6787	941.36224	-289.66129	35.03545	943.25464	-330.27386
2976	29.75	174.01909	1579.0381	-53.070919	20.313028	1586.8344	-61.905014	181.04863	1563.2838	-185.34753	18.115963	1574.5873	-176.83493	94.887978	1404.6857	-233.44653	107.76348	1217.0637	-289.05429	89.833412	1337.0183	-79.143898	77.58886	1187.1934	-40.309555	5.8103337	1301.4883	-294.26486	259.13318	1372.6981	-146.83939	317.53976	1289.2734	-93.141106	338.71271	1111.634	6.5899959	270.92087	1238.7454	2.9999652	239.68463	1296.8184	22.80908	220.7131	1274.0646	82.037346	198.45396	1375.0966	56.148735	-89.318253	1374.4554	-150.81642	-189.27878	1200.2338	-81.243813	-217.04335	1109.6848	-41.44585	-189.56534	1205.9648	-57.191292	-135.18239	1300.6144	-24.623753	-127.67656	1285.1818	35.178867	-122.94724	1382.4968	6.4171081	181.75658	883.84308	-74.25563	-97.89151	890.88464	-145.76753	163.09299	940.80896	-289.04626	35.393555	942.65118	-329.62173
2977	29.76	173.14151	1579.3586	-53.541965	19.478247	1586.7665	-62.869579	180.73611	1563.3441	-185.74446	17.931295	1574.1467	-177.76379	95.267868	1404.496	-233.84608	108.47083	1216.6726	-289.03934	89.696014	1336.9115	-79.516609	77.973434	1187.1835	-40.504093	6.7728949	1301.6139	-295.51987	259.45132	1372.9181	-146.20592	317.25702	1288.9773	-92.216187	337.55469	1111.1976	7.1099591	270.16876	1238.431	2.7026904	239.0791	1296.6995	22.105827	218.89241	1273.8457	81.135483	197.02647	1374.7528	54.585636	-89.920013	1372.8387	-152.16061	-187.43913	1195.2893	-87.283882	-213.78603	1103.2043	-49.996937	-187.30066	1200.5073	-64.317047	-133.20442	1294.2446	-32.328823	-126.12395	1278.6283	27.464737	-119.91676	1376.5793	-1.3449433	182.27592	883.63501	-73.519363	-97.459381	890.79883	-144.78383	163.36797	940.20691	-288.38364	35.687428	941.95862	-328.83838
2978	29.77	172.29294	1579.6912	-53.972466	18.612919	1586.64	-63.853516	180.35397	1563.5098	-186.0946	17.558611	1573.822	-178.81584	95.787834	1404.2964	-234.2836	109.14679	1216.319	-289.00125	89.690994	1336.8839	-80.013298	78.594566	1187.1752	-40.562759	7.7818475	1301.5973	-296.61392	259.9231	1373.1223	-145.56693	317.18884	1288.806	-91.298317	336.54797	1110.6284	7.3734345	269.6734	1237.9727	2.3765116	237.82443	1296.0894	21.447092	217.37346	1273.3577	80.21637	195.90948	1374.5721	53.529415	-90.146774	1371.1919	-153.12744	-185.17201	1190.6589	-92.82103	-210.34409	1096.9655	-58.289326	-184.90475	1195.7095	-70.809616	-131.06145	1288.1918	-39.117249	-124.58119	1272.3134	20.512951	-116.71326	1371.1409	-8.0171947	183.30733	883.48749	-72.621956	-96.869591	890.88312	-143.5751	163.67357	939.58649	-287.86243	35.981155	941.14899	-328.09891
2979	29.78	171.41692	1580.0836	-54.318871	17.798185	1586.4912	-64.708061	179.98088	1563.866	-186.47879	17.099003	1573.5193	-179.65367	96.467316	1404.1599	-234.63354	109.84336	1215.993	-288.957	89.703552	1336.9896	-80.728027	79.437286	1187.3195	-40.480595	8.8853178	1301.4037	-297.35876	260.1846	1373.1372	-144.78954	317.18011	1288.6632	-90.553123	335.68375	1109.9524	7.3863535	269.08398	1237.3158	1.9355979	237.67726	1295.5712	20.897184	216.11496	1272.7587	79.395073	194.79135	1373.8743	52.107918	-90.385765	1370.2263	-154.19449	-182.69705	1186.6313	-97.782204	-206.47227	1091.2256	-66.688599	-182.43475	1191.2166	-77.087029	-129.91537	1282.5795	-44.974506	-122.8502	1266.1122	14.347064	-113.5437	1366.0396	-13.421444	183.75087	883.57294	-72.21492	-96.178772	890.99591	-142.49597	163.96793	938.99945	-287.34473	36.212685	940.28857	-327.21036
2980	29.79	170.59741	1580.5502	-54.699383	16.988607	1586.3143	-65.435547	179.64542	1564.2928	-186.74942	16.699875	1573.3071	-180.48509	97.195969	1404.1589	-234.99014	110.58644	1215.7573	-288.88638	89.981712	1337.2535	-80.834732	80.19931	1187.5223	-40.47253	10.070328	1301.037	-297.91641	260.67441	1373.3484	-144.29199	317.27213	1288.4901	-89.985039	335.05942	1109.2394	7.1587157	268.73831	1236.6664	1.1410118	236.73885	1294.8629	20.196978	215.23035	1272.0426	78.511223	193.91081	1373.2288	51.080757	-90.069229	1368.7445	-155.38574	-180.16936	1182.649	-102.57638	-202.31277	1085.9209	-74.842583	-179.77756	1187.0034	-83.018417	-127.84679	1277.3514	-49.865746	-120.81234	1260.0835	9.1084852	-110.3064	1360.0735	-17.356682	184.52509	883.63177	-71.682251	-95.428688	891.13562	-141.27982	164.24097	938.52905	-286.92673	36.444908	939.47162	-326.42654
2981	29.8	169.75015	1581.0865	-54.98975	16.220865	1586.1219	-66.159615	179.27812	1564.8716	-187.00174	16.276197	1573.0563	-181.27019	97.985497	1404.1625	-235.26151	111.35233	1215.6473	-288.79736	90.20282	1337.2876	-80.818428	80.968651	1187.7391	-40.365448	11.397707	1300.425	-298.32874	261.42191	1373.8267	-143.99849	317.49036	1288.3174	-89.664627	334.52951	1108.5059	6.7516809	267.88962	1235.9139	0.48572513	236.6902	1294.2231	19.427349	214.71619	1271.27	77.823616	193.23424	1372.6478	50.348969	-89.988991	1368.1493	-156.78197	-177.27519	1178.6343	-106.36462	-198.50676	1081.0471	-82.64257	-177.11565	1183.1327	-88.367798	-125.51253	1272.5133	-53.795471	-118.30541	1254.2517	4.6264105	-107.73753	1355.3777	-19.296156	185.42189	883.70917	-71.334373	-94.578773	891.35461	-140.12337	164.51089	938.19781	-286.61011	36.600925	938.55463	-325.55594
2982	29.81	168.96371	1581.6857	-55.200363	15.313691	1586.0028	-66.85289	178.90207	1565.4655	-187.22226	15.823321	1572.89	-182.06096	98.85479	1404.2831	-235.45325	112.19547	1215.576	-288.70392	90.337616	1337.424	-80.930664	81.813011	1188.1638	-40.170559	12.741399	1299.9446	-298.86292	261.83264	1374.069	-143.36745	317.76486	1288.3175	-89.245224	334.19949	1107.7552	6.0511088	268.54675	1235.3657	-0.10714514	236.18707	1293.3746	18.802103	214.34917	1270.4359	77.017426	192.71782	1371.911	49.75153	-89.944603	1367.905	-158.25273	-175.04483	1175.6903	-111.49419	-194.72603	1076.7939	-90.009262	-174.34789	1179.6946	-92.81559	-122.76626	1268.1667	-56.54108	-115.11437	1248.3185	1.5705167	-105.01965	1350.1827	-19.89109	186.37939	883.72894	-71.09668	-93.755928	891.62109	-138.95052	164.80901	938.03387	-286.35736	36.708862	937.72925	-324.73926
2983	29.82	168.12445	1582.3472	-55.439297	14.402243	1585.7925	-67.581474	178.5506	1566.0527	-187.39725	15.469424	1572.6813	-182.76697	99.692871	1404.4431	-235.64601	112.97016	1215.5371	-288.63779	90.578346	1337.7262	-81.096207	82.441635	1188.5859	-40.107761	14.266066	1299.5479	-299.50943	262.48581	1374.5579	-142.89568	318.18732	1288.3174	-89.038963	334.11548	1107.0601	5.1503229	267.68576	1234.4441	-0.57998663	236.0174	1292.5852	18.231796	214.33658	1269.5912	76.382668	192.33734	1371.0557	49.326797	-89.80864	1367.9972	-159.68169	-172.7487	1173.0454	-115.6039	-191.40211	1073.2113	-96.724228	-171.77937	1176.5867	-96.355438	-119.79647	1264.207	-58.437702	-111.65491	1242.959	-0.66896331	-102.55837	1345.0044	-19.338017	187.53993	883.83826	-70.837936	-92.885529	891.87439	-137.78426	165.05367	937.98834	-286.11685	36.706253	936.99927	-323.82523
